<?xml version="1.0" encoding="utf-8"?>
<!-- Generator: Adobe Illustrator 24.0.0, SVG Export Plug-In . SVG Version: 6.00 Build 0)  -->
<svg version="1.1" id="Layer_1" xmlns="http://www.w3.org/2000/svg" xmlns:xlink="http://www.w3.org/1999/xlink" x="0px" y="0px"
	 viewBox="0 0 207.8 90.8" style="enable-background:new 0 0 207.8 90.8;" xml:space="preserve">
<style type="text/css">
	.st0{fill:url(#SVGID_1_);}
	.st1{fill:url(#SVGID_2_);}
	.st2{fill:url(#SVGID_3_);}
	.st3{fill:url(#SVGID_4_);}
	.st4{fill:url(#SVGID_5_);}
	.st5{fill:url(#SVGID_6_);}
	.st6{fill:url(#SVGID_7_);}
	.st7{fill:url(#SVGID_8_);}
	.st8{fill:url(#SVGID_9_);}
	.st9{fill:url(#SVGID_10_);}
	.st10{fill:url(#SVGID_11_);}
</style>
<title>Asset 2</title>
<g id="Layer_2_1_">
	<g id="Layer_1-2">
		
			<linearGradient id="SVGID_1_" gradientUnits="userSpaceOnUse" x1="34.0036" y1="891.4714" x2="20.1636" y2="1023.2214" gradientTransform="matrix(1 0 0 1 0 -988)">
			<stop  offset="0" style="stop-color:#0080FF"/>
			<stop  offset="1" style="stop-color:#002951"/>
		</linearGradient>
		<path class="st0" d="M45,10.6L30.2,36.9h-4.7l-4-19.9L10.1,36.9H5.5l-5-26.3h4.3l3.9,20.9l11.9-20.9h4.1l4,20.9l11.8-20.9
			C40.5,10.6,45,10.6,45,10.6z"/>
		
			<linearGradient id="SVGID_2_" gradientUnits="userSpaceOnUse" x1="69.1943" y1="895.1683" x2="55.3643" y2="1026.9183" gradientTransform="matrix(1 0 0 1 0 -988)">
			<stop  offset="0" style="stop-color:#0080FF"/>
			<stop  offset="1" style="stop-color:#002951"/>
		</linearGradient>
		<path class="st1" d="M48.3,25.2v0.3c0,4.8,2.7,7.5,8.3,7.5c3,0.1,5.9-1,8.2-3l2,3.4c-2.9,2.5-6.7,3.9-10.6,3.8
			c-7.8,0-12.6-4.5-12.6-11.4c0-9,6.3-15.5,14.9-15.5c7.1,0,11.8,4.3,11.8,11.4c0,1.2-0.1,2.4-0.3,3.5H48.3z M48.8,21.7h17
			c0.2-4.8-2.8-7.4-7.5-7.4C53.8,14.2,49.8,17.3,48.8,21.7z"/>
		
			<linearGradient id="SVGID_3_" gradientUnits="userSpaceOnUse" x1="101.6668" y1="898.5828" x2="87.8268" y2="1030.3329" gradientTransform="matrix(1 0 0 1 0 -988)">
			<stop  offset="0" style="stop-color:#0080FF"/>
			<stop  offset="1" style="stop-color:#002951"/>
		</linearGradient>
		<path class="st2" d="M104.2,21.6c0,9-6.4,15.6-14.9,15.6c-4.7,0-8-1.8-9.7-5.1l-1,4.8h-4.5L81.4,0h4.8l-2.7,13.6
			c2.5-2.2,5.7-3.4,9-3.3C99.2,10.3,104.2,14.5,104.2,21.6z M99.3,21.9c0-4.7-2.8-7.4-7.9-7.4c-6,0-10.3,4.6-10.3,11.1
			c0,4.6,2.8,7.4,7.9,7.4C95,33,99.3,28.4,99.3,21.9z"/>
		
			<linearGradient id="SVGID_4_" gradientUnits="userSpaceOnUse" x1="29.4542" y1="891.0004" x2="15.6242" y2="1022.7504" gradientTransform="matrix(1 0 0 1 0 -988)">
			<stop  offset="0" style="stop-color:#0080FF"/>
			<stop  offset="1" style="stop-color:#002951"/>
		</linearGradient>
		<path class="st3" d="M12.8,77.8c-0.1,0.5-0.1,1-0.1,1.4c0,2.2,1.2,3.4,3.7,3.4c1.5,0,2.9-0.5,4.1-1.2l1.5,7.3
			c-2.7,1.5-5.7,2.2-8.8,2.1c-6.6,0-11-3.7-11-9.8c0-1,0.1-2.1,0.3-3.1l2.8-14.2H0l1.6-7.9H7l1.7-8.6h10.2l-1.7,8.6H26l-1.6,7.9
			h-8.8L12.8,77.8z"/>
		
			<linearGradient id="SVGID_5_" gradientUnits="userSpaceOnUse" x1="63.9416" y1="894.6143" x2="50.1016" y2="1026.3644" gradientTransform="matrix(1 0 0 1 0 -988)">
			<stop  offset="0" style="stop-color:#0080FF"/>
			<stop  offset="1" style="stop-color:#002951"/>
		</linearGradient>
		<path class="st4" d="M27,75c0-11.7,8.9-20.5,21.3-20.5C59,54.5,66,60.7,66,70.3c0,11.7-8.9,20.5-21.3,20.5C34,90.8,27,84.5,27,75z
			 M55.7,70.8c0-4.8-2.9-7.8-8-7.8c-6,0-10.3,4.7-10.3,11.6c0,4.8,2.9,7.8,8,7.8C51.3,82.3,55.6,77.6,55.7,70.8L55.7,70.8z"/>
		
			<linearGradient id="SVGID_6_" gradientUnits="userSpaceOnUse" x1="106.8721" y1="899.1292" x2="93.0321" y2="1030.8792" gradientTransform="matrix(1 0 0 1 0 -988)">
			<stop  offset="0" style="stop-color:#0080FF"/>
			<stop  offset="1" style="stop-color:#002951"/>
		</linearGradient>
		<path class="st5" d="M109.4,66.5c0,1.4-0.2,2.9-0.5,4.3l-4,19.5H94.8l3.8-18.8c0.2-0.8,0.3-1.6,0.3-2.4c0-3.6-2-5.6-6-5.6
			c-5.2,0-8.8,2.9-10,9l-3.6,17.9H69.1l7-35.2h9.7L85,58.8c3.2-2.9,7.3-4.4,11.6-4.3C104.3,54.5,109.4,58.7,109.4,66.5z"/>
		
			<linearGradient id="SVGID_7_" gradientUnits="userSpaceOnUse" x1="140.5609" y1="902.6606" x2="126.7309" y2="1034.4106" gradientTransform="matrix(1 0 0 1 0 -988)">
			<stop  offset="0" style="stop-color:#0080FF"/>
			<stop  offset="1" style="stop-color:#002951"/>
		</linearGradient>
		<path class="st6" d="M121.3,55h10.1l-7,35.2h-10.2L121.3,55z M122.2,44.8c0-3.4,2.7-6.1,6.7-6.1c3.6,0,6,2.2,6,5.1
			c0,3.7-2.8,6.3-6.8,6.3C124.5,50.1,122.2,47.8,122.2,44.8L122.2,44.8z"/>
		
			<linearGradient id="SVGID_8_" gradientUnits="userSpaceOnUse" x1="172.5379" y1="906.0229" x2="158.6979" y2="1037.7729" gradientTransform="matrix(1 0 0 1 0 -988)">
			<stop  offset="0" style="stop-color:#0080FF"/>
			<stop  offset="1" style="stop-color:#002951"/>
		</linearGradient>
		<path class="st7" d="M160.2,70.3l12.1,19.9h-11.8l-8.4-13.7l-6.2,5.2l-1.7,8.5H134l6.8-35.2H151l-2.6,13.8L165.3,55h13.3
			L160.2,70.3z"/>
		
			<linearGradient id="SVGID_9_" gradientUnits="userSpaceOnUse" x1="206.1192" y1="909.5499" x2="192.2892" y2="1041.2999" gradientTransform="matrix(1 0 0 1 0 -988)">
			<stop  offset="0" style="stop-color:#0080FF"/>
			<stop  offset="1" style="stop-color:#002951"/>
		</linearGradient>
		<path class="st8" d="M172.8,87.1l3.9-7.4c3.7,2.2,7.9,3.4,12.2,3.3c4.8,0,6.9-1.3,6.9-3.4c0-5-18.7-0.8-18.7-12.8
			c0-7.9,7.4-12.4,17.7-12.4c4.9,0,9.8,1.1,13,3l-3.7,7.5c-3.2-1.8-6.8-2.8-10.4-2.7c-4.7,0-6.8,1.6-6.8,3.5c0,5.2,18.6,1,18.6,12.8
			c0,8-7.6,12.3-17.7,12.3C181.6,90.8,175.7,89.2,172.8,87.1z"/>
		
			<linearGradient id="SVGID_10_" gradientUnits="userSpaceOnUse" x1="151.9205" y1="903.8532" x2="138.0905" y2="1035.6031" gradientTransform="matrix(1 0 0 1 0 -988)">
			<stop  offset="0" style="stop-color:#0080FF"/>
			<stop  offset="1" style="stop-color:#002951"/>
		</linearGradient>
		<path class="st9" d="M132.5,27.6c0-4.1,3.2-7.4,8.2-7.4c4.4,0,7.3,2.7,7.3,6.2c0,4.5-3.3,7.6-8.2,7.6
			C135.4,34,132.5,31.1,132.5,27.6z"/>
		
			<linearGradient id="SVGID_11_" gradientUnits="userSpaceOnUse" x1="137.0399" y1="902.2927" x2="123.1999" y2="1034.0426" gradientTransform="matrix(1 0 0 1 0 -988)">
			<stop  offset="0" style="stop-color:#0080FF"/>
			<stop  offset="1" style="stop-color:#002951"/>
		</linearGradient>
		<path class="st10" d="M117.6,9.1c0-5.1,4-9.1,10.1-9.1c5.4,0,9,3.3,9,7.7c0,5.6-4.1,9.4-10.2,9.4C121.2,17.1,117.6,13.6,117.6,9.1
			z"/>
	</g>
</g>
</svg>
